<?xml version="1.0" encoding="utf-8"?>
<!-- Generator: Adobe Illustrator 21.1.0, SVG Export Plug-In . SVG Version: 6.00 Build 0)  -->
<svg version="1.1" xmlns="http://www.w3.org/2000/svg" xmlns:xlink="http://www.w3.org/1999/xlink" x="0px" y="0px"
	 viewBox="0 0 80 80" style="enable-background:new 0 0 80 80;" xml:space="preserve">
<style type="text/css">
	.st0{display:none;}
	.st1{display:inline;fill:#231F20;}
	.st2{fill:url(#SVGID_1_);}
	.st3{fill:#231F20;}
	.st4{fill:url(#SVGID_2_);}
	.st5{fill:#808285;}
	.st6{fill:#ED1C24;}
	.st7{fill:url(#SVGID_3_);}
	.st8{fill:url(#SVGID_4_);}
	.st9{fill:url(#SVGID_5_);}
	.st10{fill:url(#SVGID_6_);}
	.st11{fill:url(#SVGID_7_);}
	.st12{fill:#FFCB05;}
	.st13{fill:#3C2415;}
	.st14{fill:#C2B59B;}
	.st15{fill:#FFFFFF;}
	.st16{fill:url(#SVGID_8_);}
</style>
<g id="Layer_2" class="st0">
	<rect x="-22.9" y="-10.7" class="st1" width="137.1" height="110.5"/>
</g>
<g id="Layer_1">
	<title>Artboard 1</title>
	<g id="Layer_1_1_">

			<radialGradient id="SVGID_1_" cx="40.385" cy="-1168.73" r="12.84" gradientTransform="matrix(1 0 0 -0.2 0 -180.4681)" gradientUnits="userSpaceOnUse">
			<stop  offset="0" style="stop-color:#16181A"/>
			<stop  offset="0.1591" style="stop-color:#111114;stop-opacity:0.8409"/>
			<stop  offset="0.5708" style="stop-color:#07060A;stop-opacity:0.4292"/>
			<stop  offset="1" style="stop-color:#040207;stop-opacity:0"/>
		</radialGradient>
		<ellipse class="st2" cx="40.4" cy="54" rx="15.6" ry="3.3"/>
		<path class="st3" d="M42.2,50.8l0.4-1.4c0.3-1.6-0.8-3.2-2.5-3.4c-0.2,0-0.3,0-0.5,0c-1.8-0.1-3.2,1.4-2.7,2.5
			c1.1,2.5,1.1,2.5,1.1,2.5c0.4,0.8,1.3,1.4,2.2,1.5C41.2,52.3,42,51.7,42.2,50.8z"/>
		<path class="st3" d="M23.7,43.1l0.7-1.2c1-1.3,2.9-1.6,4.2-0.6c0.1,0.1,0.2,0.2,0.3,0.3c1.3,1.3,1.3,3.2,0.1,3.6
			c-2.5,0.9-2.5,0.9-2.5,0.9c-0.9,0.3-1.9,0.1-2.7-0.5C23.3,44.9,23.3,43.9,23.7,43.1z"/>

			<radialGradient id="SVGID_2_" cx="128.4766" cy="59.2703" r="30.13" gradientTransform="matrix(0.9225 0.3859 0.3859 -0.9225 -113.1202 36.2501)" gradientUnits="userSpaceOnUse">
			<stop  offset="0" style="stop-color:#231F20"/>
			<stop  offset="0.34" style="stop-color:#252223"/>
			<stop  offset="0.55" style="stop-color:#2D2A2B"/>
			<stop  offset="0.73" style="stop-color:#3A3839"/>
			<stop  offset="0.88" style="stop-color:#4C4C4E"/>
			<stop  offset="0.96" style="stop-color:#58595B"/>
		</radialGradient>
		<path class="st4" d="M56.7,34.3c0.4-1,0.5-3.1-3.8-6.4c-6.1-4.4-13.1-7.3-20.5-8.6c-5.3-0.7-6.8,0.8-7.2,1.8
			c-0.2,0.6-0.2,4-0.5,4.5c-0.4,0.7-0.7,1.3-1,2.1c-3.6,8.1,0,17.5,8.1,21.1c8.1,3.6,17.5,0,21.1-8.1c0.4-0.9,0.7-1.9,1-2.9
			C54.1,37.2,56.5,34.9,56.7,34.3z"/>
		<path class="st5" d="M49.1,38.4c-0.1,0.5-0.3,1-0.5,1.5c-2.6,6.5-10,9.6-16.5,7c0,0,0,0,0,0l-0.3-0.1c0.6,0.4,1.3,0.7,1.9,1
			c7.1,3,15.5-0.7,18.6-8.1c0.2-0.4,0.3-0.8,0.4-1.1C51.4,38.6,50.2,38.5,49.1,38.4z"/>
		<path class="st6" d="M51.7,21.4c-1.8-5.4,5.4-6,6.4-11.7c0.2-1.8-0.5-3.6-1.9-4.9c0,5.2-7.2,2.8-9.7,7.8c0.6-4.2,3.2-5.3,0.3-10.2
			c-2.5,4.9-8.2,1.3-5.5,13.5c1,4.7,0.4,11.6-2.8,13c-0.5-1.7,2.4,2,2.7-7.2c0.3-1.8-0.3-9.7-4.1-14c-2.9,14.4-6.4,4.6-4,19.1
			c-2.5-3.4,8.2,4.3,8.2,4.3S52.5,22.5,51.7,21.4z"/>

			<linearGradient id="SVGID_3_" gradientUnits="userSpaceOnUse" x1="141.2968" y1="73.4197" x2="146.0968" y2="85.0697" gradientTransform="matrix(0.9225 0.3859 0.3859 -0.9225 -113.1202 36.2501)">
			<stop  offset="0" style="stop-color:#ED1C24"/>
			<stop  offset="1" style="stop-color:#FFF200"/>
		</linearGradient>
		<path class="st7" d="M53.7,23c-1.2,0.4-3.4,0.9-4.2-2.9c-1.7-8.4,8.5-4.7,7.2-12.9c-2.9,7-12.5-0.1-10.9,14.5
			C46.3,25.7,50.6,27.6,53.7,23z"/>

			<linearGradient id="SVGID_4_" gradientUnits="userSpaceOnUse" x1="131.4122" y1="72.5552" x2="129.9621" y2="78.9451" gradientTransform="matrix(0.9225 0.3859 0.3859 -0.9225 -113.1202 36.2501)">
			<stop  offset="0" style="stop-color:#ED1C24"/>
			<stop  offset="1" style="stop-color:#FFF200"/>
		</linearGradient>
		<path class="st8" d="M33.6,19.8c4.4-7.1,4-9.5,4-9.5s1.2,1.6,1.5,6.6c0.3,3.5-0.8,7-3,9.7c-1.2,1.2-2-0.6-2-0.6
			C32.6,24.3,32.4,21.8,33.6,19.8z"/>

			<linearGradient id="SVGID_5_" gradientUnits="userSpaceOnUse" x1="139.9576" y1="74.8352" x2="133.0276" y2="89.3052" gradientTransform="matrix(0.9225 0.3859 0.3859 -0.9225 -113.1202 36.2501)">
			<stop  offset="0" style="stop-color:#ED1C24"/>
			<stop  offset="1" style="stop-color:#FFF200"/>
		</linearGradient>
		<path class="st9" d="M44.3,21.9c0,0-2.4-6.6-2.4-10.5c0-4.8,4-3.5,4.5-6.6c1,3.5-2.7,4.7-1.2,9.9C44.6,17.1,44.3,19.5,44.3,21.9z"
			/>

			<linearGradient id="SVGID_6_" gradientUnits="userSpaceOnUse" x1="122.0781" y1="65.3125" x2="155.7135" y2="65.3125" gradientTransform="matrix(0.9225 0.3859 0.3859 -0.9225 -113.1202 36.2501)">
			<stop  offset="0" style="stop-color:#231F20"/>
			<stop  offset="0.29" style="stop-color:#252123"/>
			<stop  offset="0.46" style="stop-color:#2D2A2B"/>
			<stop  offset="0.61" style="stop-color:#3A3839"/>
			<stop  offset="0.74" style="stop-color:#4D4C4E"/>
			<stop  offset="0.86" style="stop-color:#656568"/>
			<stop  offset="0.96" style="stop-color:#808285"/>
		</linearGradient>
		<path class="st10" d="M39.6,31.2c-8-3.4-13.9-8-13.7-10.6c-0.1,0.1-0.2,0.3-0.3,0.4c-1.1,2.6,5,7.5,13.6,11.1s16.4,4.4,17.5,1.9
			c0.1-0.2,0.1-0.3,0.1-0.5C55,35.5,47.6,34.6,39.6,31.2z"/>

			<linearGradient id="SVGID_7_" gradientUnits="userSpaceOnUse" x1="126.5479" y1="83.4009" x2="141.1679" y2="67.8609" gradientTransform="matrix(0.9225 0.3859 0.3859 -0.9225 -113.1202 36.2501)">
			<stop  offset="0" style="stop-color:#ED1C24"/>
			<stop  offset="4.000000e-02" style="stop-color:#EF3120"/>
			<stop  offset="0.12" style="stop-color:#F35E19"/>
			<stop  offset="0.21" style="stop-color:#F68612"/>
			<stop  offset="0.3" style="stop-color:#F9A70D"/>
			<stop  offset="0.4" style="stop-color:#FBC308"/>
			<stop  offset="0.51" style="stop-color:#FDD804"/>
			<stop  offset="0.64" style="stop-color:#FEE702"/>
			<stop  offset="0.78" style="stop-color:#FFEF00"/>
			<stop  offset="1" style="stop-color:#FFF200"/>
		</linearGradient>
		<path class="st11" d="M51.2,29c0.3-0.3,0.4-0.5,1-0.4c1.2,0.3,1.5-1.7,2-2.3s0-5.3-0.1-5.5s-0.6-0.6-1.4,0.2s-6.3,2.6-6.4,2.7
			s-0.6-0.9-0.8-1s-0.2-1.1,0-3.2s-3-5.9-3.2-6s-1,1.6-1.2,2.1c-0.8,1.1-1.8,2.2-2.8,3.2c-0.3,0.2-1.8-3.2-1.9-3.3
			c-0.8,0.2-1.6,0.5-2.4,0.9c-1,0.4-2.5,2.9-2.1,4.7c-2.2-0.2-3.7,0.1-4.1,1c-0.8,1.9,4.4,6,11.6,9s13.7,3.9,14.5,2
			C54.5,32.2,53.4,30.7,51.2,29z"/>
		<path class="st6" d="M36.8,25.9c0,0-7.6-6.7-0.5-9.8c0.2,1.1,0.7,2.2,1.6,2.9c1.5,1.7,2,4.1,1.3,6.2c2.9-2.6,0.9-5-0.4-6.6
			c-0.3-0.4-1.7-1.8-1.3-3l0.3-0.9l-1,0.3c-3.3,0.9-5.1,2.3-5.5,4.1C30.2,23.1,35.5,25.4,36.8,25.9z"/>
		<path class="st6" d="M41.6,24.6c6.4-3.8,2.6-8,1.1-10l-0.1-0.1c-0.6,1.7-1.7,3.2-3.1,4.3c-0.2,0.2-0.6,0.6-0.6,0.6l-0.8-0.7
			l0.6-0.6c1.4-1.4,3.5-3.6,3.9-5.8l0.2-1.3l0.8,1.2c0.2,0.3,0.5,0.7,0.8,1.1c1.5,2,3.6,6,2.7,8.9C46,25.9,41.6,24.6,41.6,24.6z"/>
		<path class="st12" d="M45.3,26.5c-0.6,0.9,2.1-3.1,1.4-3.1c-0.1,0,6.6-3.1,6.7-3s2.3,4.9,0.5,6.7s-5.8,1.5-5.8,1.7
			C48.1,28.8,43.8,28.7,45.3,26.5z"/>
		<path class="st6" d="M53.8,22.4c-0.1-0.5-0.3-0.7-0.4-1.1c-3.2,3.5-6.3-1-7.2,5.8c-1.5-1-0.6-4.8,2.1-5.1c2.4-0.2,4.6-1.5,5.8-3.7
			l0.1,1.6c0.1,0.8,0.3,1.6,0.5,2.5c2.8,11.2-8.2,7.2-12.3,4.9C42.6,27.2,55.8,31.6,53.8,22.4z"/>
		<path class="st6" d="M39.8,24.1c0.6,0.2,1.1,0.4,1.7,0.7c1.2,0.5,2.3,1,3.4,1.5L44.3,27c-0.9-0.4-1.9-0.8-2.8-1.2S40,25.2,39.3,25
			L39.8,24.1z"/>
		<path class="st6" d="M35.1,24.6c-0.3,0.1-0.4,0.4-0.3,0.6c0,0,0,0.1,0.1,0.1c0.5,1.2,3.6,3.1,6.9,4.6c2.5,1.2,5.1,2.1,7.8,2.9
			c0.9,0.3,1.8,0.5,2.7,0.6c1.3,0.2-3.7,1-12.6-2.7c-5.2-2.2-10.3-5.8-10.3-7.4c-0.1-0.8,1-1.2,3.1-1c0.3,0,0.7,0.1,1,0.1L35.1,24.6
			z"/>
		<path class="st13" d="M63.5,17.2c-0.4-0.7-1.2-1-1.9-0.6c0,0,0,0-0.1,0L40.3,27.9c0.5,0.5,1,0.9,1.6,1.4c0.3,0.2,1.6-0.1,1.9,0.1
			l19.1-10.1C63.6,18.8,63.9,18,63.5,17.2C63.5,17.3,63.5,17.3,63.5,17.2z"/>
		<path class="st14" d="M63.1,17.5L63.1,17.5z M63.1,17.5c-0.1,0.3-0.4,0.6-0.7,0.8L41.8,29.2l0.1,0.1c0.1,0.1,0.7,0,0.8,0.1
			l19.9-10.6C63.1,18.5,63.3,17.9,63.1,17.5z"/>
		<path class="st6" d="M50.1,29.3c1.8,1.4,1.8,2.5,0.2,2.5s-4.9-0.9-7.6-2S38,27,37.9,26.4s1.2-0.6,3.1,0s-1.8-0.3-1.5,0.2
			s1.8,1.6,3.8,2.4s3.9,1.6,4.7,1.5s0.6-0.8-0.7-1.8L50.1,29.3z"/>
		<path class="st15" d="M15.8,62.5c0,0.1-0.1,0.2-0.2,0.2c-0.8-0.4-1.7-0.6-2.6-0.6c-0.9,0-1.5,0.3-1.5,1.1c0,1.2,2,1.1,3.6,2.2
			c1,0.6,1.5,1.6,1.5,2.7c0.1,1.9-1.5,3.6-3.4,3.6c-0.1,0-0.3,0-0.4,0c-1.7,0-4.2-0.9-4.2-1.5c0-0.1,0.1-0.2,0.1-0.3l0.5-1.3
			c0-0.1,0.1-0.2,0.2-0.2c1,0.5,2.1,0.9,3.2,1c0.7,0,1.4-0.3,1.4-1.1c0-1.3-2.2-1.3-3.7-2.3c-0.9-0.6-1.4-1.5-1.3-2.5
			c0-2,1.6-3.7,3.7-3.7c0.1,0,0.2,0,0.3,0c1.4,0,3.5,0.6,3.5,1.1c0,0.1-0.1,0.2-0.1,0.3L15.8,62.5z"/>
		<path class="st15" d="M72.2,70.1c0,0.1,0.1,0.2,0.1,0.2c0,0.6-2.2,1.3-4,1.3c-3,0-5-1.7-5-5.8c0-3.6,1.9-6,4.9-6
			c3.8,0,4.5,3.4,4.5,6.1c0,0.4-0.1,0.6-0.5,0.6h-6c0,1.2,0.4,2.8,2.5,2.8c1-0.1,2-0.3,2.9-0.7c0.1,0,0.2,0.1,0.2,0.2L72.2,70.1z
			 M69.6,64.4c0-0.9-0.1-2.5-1.6-2.5c-1.8,0-1.8,1.9-1.9,2.5H69.6z"/>
		<path class="st15" d="M25.2,70.6c0,0.1,0,0.1,0,0.2c0,0.4-1.6,0.9-3.2,0.9c-2.9,0-2.9-2.3-2.9-4.3v-5h-1.6c-0.3,0-0.3-0.1-0.3-0.3
			v-1.5c0-0.2,0-0.3,0.3-0.3h1.6v-2.9c0-0.3,0-0.4,0.4-0.4l2-0.3h0.3c0.2,0,0.2,0.1,0.2,0.4v3.1h1.6c0.2,0,0.4,0,0.4,0.2
			c0,0.1,0,0.1,0,0.2L23.7,62c-0.1,0.3-0.1,0.3-0.4,0.3h-1.2v5.4c0,0.7,0,1.4,0.8,1.4c0.6-0.1,1.2-0.2,1.8-0.4c0.1,0,0.2,0,0.2,0.1
			L25.2,70.6z"/>
		<path class="st15" d="M35.7,71c0,0.2,0,0.3-0.3,0.3h-2.2c-0.3,0-0.3-0.1-0.3-0.3v-6.8c0-1.2-0.2-2.3-0.6-3.4
			c0-0.1,0.1-0.2,0.2-0.2l1.7-0.7c0.1,0,0.2-0.1,0.3-0.1c0.3,0,0.7,1,0.8,1.8c0.6-1,1.6-1.7,2.8-1.8c0.6,0,1.3,0.2,1.3,0.5
			c0,0.1,0,0.1,0,0.2l-0.7,1.9c0,0.1-0.1,0.2-0.2,0.2c-0.3-0.1-0.7-0.2-1-0.2c-0.7,0-1.4,0.8-1.7,1.1L35.7,71z"/>
		<path class="st15" d="M45.8,70.8c0,0.4-0.1,0.5-0.5,0.5h-1.9c-0.4,0-0.5-0.1-0.5-0.5v-8.5h-1.6c-0.4,0-0.5-0.1-0.5-0.5v-1.1
			c0-0.4,0.1-0.5,0.5-0.5H43v-0.9c0-2.5,0.9-4.2,3.6-4.2c1,0,2.7,0.4,2.7,0.8c0,0.1,0,0.1,0,0.2l-0.4,1.6c0,0.1-0.1,0.2-0.2,0.2
			c-0.5-0.2-1-0.3-1.6-0.4c-1.2,0-1.2,0.7-1.2,1.8v0.9h1.5c0.2,0,0.4,0,0.4,0.2c0,0.1,0,0.1,0,0.2L47.5,62c-0.1,0.3-0.2,0.3-0.4,0.3
			h-1.1L45.8,70.8z"/>
		<path class="st15" d="M59.7,71c0,0.2,0,0.3-0.3,0.3h-2.2c-0.3,0-0.3-0.1-0.3-0.3v-6.8c0-1.2-0.2-2.3-0.6-3.4
			c0-0.1,0.1-0.2,0.2-0.2l1.7-0.7c0.1,0,0.2-0.1,0.3-0.1c0.3,0,0.7,1,0.8,1.8c0.6-1,1.6-1.7,2.8-1.8c0.6,0,1.3,0.2,1.3,0.5
			c0,0.1,0,0.1,0,0.2l-0.7,1.9c0,0.1-0.1,0.2-0.2,0.2c-0.3-0.1-0.7-0.2-1-0.2c-0.7,0-1.4,0.8-1.7,1.1L59.7,71z"/>
		<path class="st15" d="M30.3,71c0,0.2,0,0.3-0.3,0.3h-2.2c-0.3,0-0.3-0.1-0.3-0.3v-8.7h-1.7c-0.3,0-0.3-0.1-0.3-0.3v-1.5
			c0-0.2,0-0.3,0.3-0.3H30c0.3,0,0.3,0.1,0.3,0.3V71z M28.8,59.4c0.9,0,1.6-0.7,1.6-1.5s-0.7-1.6-1.5-1.6s-1.6,0.7-1.6,1.5v0
			C27.2,58.7,27.9,59.4,28.8,59.4z"/>
		<path class="st15" d="M53.7,71c0,0.2,0,0.3-0.3,0.3h-2.2c-0.3,0-0.3-0.1-0.3-0.3v-8.7h-1.7c-0.3,0-0.3-0.1-0.3-0.3v-1.5
			c0-0.2,0-0.3,0.3-0.3h4.3c0.3,0,0.3,0.1,0.3,0.3V71z M52.2,59.4c0.9,0,1.5-0.7,1.5-1.6s-0.7-1.5-1.6-1.5c-0.9,0-1.5,0.7-1.5,1.5
			C50.7,58.7,51.4,59.4,52.2,59.4C52.2,59.4,52.2,59.4,52.2,59.4z"/>
		<path class="st15" d="M18.1,77.4h1.3c0,0.2,0,0.3,0.1,0.4c0.1,0,0.2,0.1,0.2,0.1h1h1c0.1,0,0.2,0,0.3,0c0.1,0,0.1-0.1,0.1-0.3
			c0-0.1,0-0.2-0.1-0.2c-0.1-0.1-0.3-0.1-0.4-0.1h-1h-1.1c-0.2,0-0.5,0-0.7-0.1c-0.2,0-0.3-0.1-0.4-0.2c-0.2-0.2-0.3-0.6-0.2-0.9
			c0-0.4,0.1-0.7,0.3-1c0.2-0.2,0.4-0.3,0.7-0.3c0.6-0.1,1.2-0.1,1.8-0.1c0.5,0,0.9,0,1.4,0c0.3,0,0.6,0.1,0.8,0.3
			c0.2,0.2,0.3,0.5,0.2,0.8c0,0,0,0.1,0,0.2H22c0-0.1,0-0.2,0-0.2c0,0,0-0.1-0.1-0.1c-0.1,0-0.2-0.1-0.3-0.1h-0.9c-0.3,0-0.7,0-1,0
			c-0.1,0-0.2,0.1-0.2,0.3c0,0.1,0.1,0.2,0.2,0.3c0.5,0,0.9,0.1,1.4,0.1c0.7,0,1.2,0,1.4,0.1c0.2,0,0.4,0.1,0.6,0.1
			c0.2,0.1,0.3,0.2,0.3,0.4c0.1,0.2,0.1,0.4,0.1,0.7c0,0.3,0,0.6-0.2,0.8c-0.1,0.1-0.2,0.2-0.4,0.3c-0.2,0.1-0.4,0.1-0.6,0.1
			c-0.3,0-0.8,0-1.6,0c-0.7,0-1.2,0-1.5,0c-0.2,0-0.5-0.1-0.7-0.2c-0.1-0.1-0.3-0.2-0.3-0.3c-0.1-0.2-0.1-0.4-0.1-0.6L18.1,77.4z"/>
		<path class="st15" d="M57.8,77.4h1.3c0,0.2,0,0.3,0.1,0.4c0.1,0,0.2,0.1,0.2,0.1h1h1c0.1,0,0.2,0,0.3,0c0.1,0,0.1-0.1,0.1-0.3
			c0-0.1,0-0.2-0.1-0.2c-0.1-0.1-0.3-0.1-0.4-0.1h-1h-1.1c-0.2,0-0.5,0-0.7-0.1c-0.2,0-0.3-0.1-0.4-0.2c-0.2-0.2-0.3-0.6-0.2-0.9
			c0-0.4,0.1-0.7,0.3-1c0.2-0.2,0.4-0.3,0.7-0.3c0.6-0.1,1.2-0.1,1.8-0.1c0.5,0,0.9,0,1.4,0c0.3,0,0.6,0.1,0.8,0.3
			c0.2,0.2,0.2,0.5,0.2,0.8c0,0,0,0.1,0,0.2h-1.3c0-0.1,0-0.2,0-0.2c0,0-0.1-0.1-0.1-0.1c-0.1,0-0.2-0.1-0.3-0.1h-0.9
			c-0.3,0-0.7,0-1,0c-0.1,0-0.2,0.1-0.2,0.3c0,0.1,0.1,0.2,0.2,0.3c0.5,0,0.9,0.1,1.4,0.1c0.7,0,1.2,0,1.4,0.1
			c0.2,0,0.4,0.1,0.6,0.1c0.2,0.1,0.3,0.2,0.3,0.4c0.1,0.2,0.1,0.4,0.1,0.7c0,0.3,0,0.6-0.2,0.8c-0.1,0.1-0.2,0.2-0.4,0.3
			c-0.2,0.1-0.4,0.1-0.6,0.1c-0.3,0-0.8,0-1.6,0s-1.1,0-1.5,0c-0.2,0-0.5-0.1-0.7-0.2c-0.1-0.1-0.3-0.2-0.3-0.3
			c-0.1-0.2-0.1-0.4-0.1-0.6L57.8,77.4z"/>
		<path class="st15" d="M24.6,74.7H30v1h-2v3h-1.4v-3h-2L24.6,74.7z"/>
		<path class="st15" d="M31.6,74.7h1.3v1.8c0,0.3,0,0.5,0,0.8c0,0.2,0.2,0.3,0.3,0.3c0.4,0.1,0.8,0.1,1.1,0.1c0.3,0,0.7,0,1,0
			c0.1,0,0.3-0.1,0.4-0.1c0-0.1,0.1-0.1,0.1-0.2c0-0.1,0-0.2,0-0.4c0-0.2,0-0.3,0-0.4v-1.8h1.3v1.8c0,0.7,0,1.1-0.1,1.2
			c0,0.3-0.2,0.6-0.5,0.7c-0.2,0.1-0.5,0.2-0.7,0.2c-0.3,0-0.8,0-1.5,0c-0.5,0-0.9,0-1.2,0c-0.3,0-0.5,0-0.8-0.1
			c-0.4-0.1-0.7-0.4-0.8-0.8c0-0.1,0-0.3-0.1-0.4c0-0.1,0-0.4,0-0.9L31.6,74.7z"/>
		<path class="st15" d="M39.2,78.7v-4h4.3c0.2,0,0.4,0,0.5,0.1c0.4,0,0.7,0.3,0.9,0.7c0,0.1,0.1,0.3,0.1,0.5c0,0.2,0,0.4,0,0.7
			c0,0.3,0,0.5,0,0.8c0,0.2-0.1,0.3-0.1,0.5c-0.1,0.4-0.4,0.6-0.8,0.6c-0.2,0-0.4,0.1-0.6,0.1h-1.1L39.2,78.7z M40.5,77.7h1.9
			c0.3,0,0.5,0,0.8,0c0.1,0,0.2,0,0.3-0.1c0.1-0.1,0.1-0.2,0.2-0.3c0-0.2,0-0.4,0-0.6c0-0.2,0-0.4,0-0.6c0-0.1-0.1-0.2-0.1-0.3
			c-0.1-0.1-0.2-0.1-0.3-0.1c-0.3,0-0.5,0-0.8,0h-1.9L40.5,77.7z"/>
		<path class="st15" d="M46.9,74.7h1.4v4h-1.4V74.7z"/>
		<path class="st15" d="M53.1,74.6c0.7,0,1.3,0,2,0.1c0.4,0,0.8,0.3,0.9,0.7c0.2,0.9,0.2,1.8,0,2.7c-0.1,0.4-0.5,0.7-0.9,0.7
			c-0.6,0.1-1.3,0.1-2,0.1c-0.7,0-1.3,0-2-0.1c-0.4,0-0.8-0.3-0.9-0.7c-0.1-0.4-0.1-0.9-0.1-1.4c0-0.4,0-0.9,0.1-1.3
			c0.1-0.4,0.5-0.7,0.9-0.7C51.8,74.6,52.5,74.6,53.1,74.6z M53.1,75.6c-0.4,0-0.9,0-1.3,0c-0.1,0-0.3,0.1-0.3,0.3
			c-0.1,0.3-0.1,0.5-0.1,0.8c0,0.2,0,0.4,0,0.5c0.1,0.2,0.3,0.4,0.5,0.4c0.2,0,0.6,0,1.2,0c0.5,0,0.9,0,1.1,0c0.1,0,0.3,0,0.4-0.1
			c0.1-0.1,0.1-0.1,0.2-0.2c0-0.2,0-0.3,0-0.5c0-0.2,0-0.4,0-0.6c0-0.1-0.1-0.2-0.1-0.3c-0.1-0.1-0.2-0.2-0.4-0.2
			C54.1,75.7,53.8,75.7,53.1,75.6L53.1,75.6z"/>

			<radialGradient id="SVGID_8_" cx="41.385" cy="-1048.73" r="12.84" gradientTransform="matrix(1 0 0 -0.2 0 -180.4681)" gradientUnits="userSpaceOnUse">
			<stop  offset="0" style="stop-color:#16181A"/>
			<stop  offset="0.17" style="stop-color:#1A1C1E;stop-opacity:0.69"/>
			<stop  offset="0.36" style="stop-color:#989A9D;stop-opacity:0.39"/>
			<stop  offset="0.54" style="stop-color:#A0A2A5;stop-opacity:0.18"/>
			<stop  offset="0.69" style="stop-color:#A5A7AA;stop-opacity:5.000000e-02"/>
			<stop  offset="0.81" style="stop-color:#A7A9AC;stop-opacity:0"/>
		</radialGradient>
		<ellipse class="st16" cx="41.4" cy="30" rx="15.6" ry="3.3"/>
	</g>
</g>
</svg>
