<svg xmlns="http://www.w3.org/2000/svg" xmlns:xlink="http://www.w3.org/1999/xlink" viewBox="0 0 841.89 595.28"><defs><style>.cls-1{isolation:isolate;}.cls-2{mix-blend-mode:multiply;fill:url(#radial-gradient);}.cls-3{fill:#231f20;}.cls-4{fill:url(#radial-gradient-2);}.cls-5{fill:#808285;}.cls-6{fill:#ed1c24;}.cls-7{fill:url(#linear-gradient);}.cls-8{fill:url(#linear-gradient-2);}.cls-9{fill:url(#linear-gradient-3);}.cls-10{fill:url(#linear-gradient-4);}.cls-11{fill:url(#linear-gradient-5);}.cls-12{fill:#ffcb05;}.cls-13{fill:#3c2415;}.cls-14{fill:#c2b59b;}</style><radialGradient id="radial-gradient" cx="422.33" cy="309.64" r="12.84" gradientTransform="translate(0 246.99) scale(1 0.2)" gradientUnits="userSpaceOnUse"><stop offset="0" stop-color="#808285"/><stop offset="0.17" stop-color="#8c8e91" stop-opacity="0.69"/><stop offset="0.36" stop-color="#989a9d" stop-opacity="0.39"/><stop offset="0.54" stop-color="#a0a2a5" stop-opacity="0.18"/><stop offset="0.69" stop-color="#a5a7aa" stop-opacity="0.05"/><stop offset="0.81" stop-color="#a7a9ac" stop-opacity="0"/></radialGradient><radialGradient id="radial-gradient-2" cx="395.73" cy="302.26" r="30.13" gradientTransform="translate(161.79 -142.77) rotate(22.7)" gradientUnits="userSpaceOnUse"><stop offset="0" stop-color="#231f20"/><stop offset="0.34" stop-color="#252223"/><stop offset="0.55" stop-color="#2d2a2b"/><stop offset="0.73" stop-color="#3a3839"/><stop offset="0.88" stop-color="#4c4c4e"/><stop offset="0.96" stop-color="#58595b"/></radialGradient><linearGradient id="linear-gradient" x1="408.52" y1="288.11" x2="413.32" y2="276.46" gradientTransform="translate(161.79 -142.77) rotate(22.7)" gradientUnits="userSpaceOnUse"><stop offset="0" stop-color="#ed1c24"/><stop offset="1" stop-color="#fff200"/></linearGradient><linearGradient id="linear-gradient-2" x1="398.6" y1="288.99" x2="397.15" y2="282.6" xlink:href="#linear-gradient"/><linearGradient id="linear-gradient-3" x1="407.18" y1="286.71" x2="400.25" y2="272.24" xlink:href="#linear-gradient"/><linearGradient id="linear-gradient-4" x1="389.3" y1="296.21" x2="422.93" y2="296.21" gradientTransform="translate(161.79 -142.77) rotate(22.7)" gradientUnits="userSpaceOnUse"><stop offset="0" stop-color="#231f20"/><stop offset="0.29" stop-color="#252123"/><stop offset="0.46" stop-color="#2d2a2b"/><stop offset="0.61" stop-color="#3a3839"/><stop offset="0.74" stop-color="#4d4c4e"/><stop offset="0.86" stop-color="#656568"/><stop offset="0.96" stop-color="#808285"/></linearGradient><linearGradient id="linear-gradient-5" x1="393.79" y1="278.14" x2="408.41" y2="293.68" gradientTransform="translate(161.79 -142.77) rotate(22.7)" gradientUnits="userSpaceOnUse"><stop offset="0" stop-color="#ed1c24"/><stop offset="0.04" stop-color="#ef3120"/><stop offset="0.12" stop-color="#f35e19"/><stop offset="0.21" stop-color="#f68612"/><stop offset="0.3" stop-color="#f9a70d"/><stop offset="0.4" stop-color="#fbc308"/><stop offset="0.51" stop-color="#fdd804"/><stop offset="0.64" stop-color="#fee702"/><stop offset="0.78" stop-color="#ffef00"/><stop offset="1" stop-color="#fff200"/></linearGradient></defs><title>Artboard 1</title><g class="cls-1"><g id="Layer_1" data-name="Layer 1"><ellipse class="cls-2" cx="422.33" cy="309.64" rx="15.64" ry="3.33"/><path class="cls-3" d="M424.12,308.47l.39-1.39a3,3,0,0,0-2.94-3.48c-1.83-.06-3.17,1.35-2.66,2.46,1.12,2.46,1.14,2.46,1.14,2.46a3,3,0,0,0,2.21,1.55A2.12,2.12,0,0,0,424.12,308.47Z"/><path class="cls-3" d="M405.69,300.77l.72-1.25a3,3,0,0,1,4.54-.35c1.32,1.26,1.26,3.2.12,3.62-2.54.93-2.55.91-2.55.91a3,3,0,0,1-2.66-.48A2.12,2.12,0,0,1,405.69,300.77Z"/><path class="cls-4" d="M438.66,291.92c.41-1,.46-3.1-3.76-6.37A49.76,49.76,0,0,0,414.43,277c-5.29-.71-6.76.82-7.17,1.8-.24.58-.24,4-.55,4.48a15.74,15.74,0,0,0-1,2.06,16,16,0,1,0,30.2,10.13C436,294.86,438.42,292.5,438.66,291.92Z"/><path class="cls-5" d="M431,296a13.13,13.13,0,0,1-.54,1.55,12.7,12.7,0,0,1-16.57,7l-.34-.15a13.74,13.74,0,0,0,1.92,1c7.14,3,15.46-.66,18.59-8.14.16-.38.3-.76.42-1.14A16.4,16.4,0,0,1,431,296Z"/><path class="cls-6" d="M433.6,279c-1.82-5.37,5.37-6,6.42-11.66a5.84,5.84,0,0,0-1.91-4.87c0,5.23-7.21,2.84-9.71,7.79.62-4.21,3.2-5.29.32-10.21-2.49,4.86-8.22,1.28-5.55,13.53,1,4.72.35,11.63-2.82,13-.48-1.68,2.44,2,2.71-7.25.34-1.81-.33-9.71-4.1-14-2.89,14.4-6.35,4.59-4,19.12-2.53-3.43,8.23,4.29,8.23,4.29S434.45,280.15,433.6,279Z"/><path class="cls-7" d="M435.64,280.64c-1.23.43-3.41.89-4.16-2.87-1.7-8.44,8.49-4.72,7.17-12.85-2.94,7-12.51-.1-10.88,14.46C428.21,283.31,432.5,285.22,435.64,280.64Z"/><path class="cls-8" d="M415.55,277.44c4.4-7.07,4-9.46,4-9.46s1.2,1.65,1.51,6.64a13.33,13.33,0,0,1-3,9.7c-1.21,1.25-2-.59-2-.59A5.3,5.3,0,0,1,415.55,277.44Z"/><path class="cls-9" d="M426.26,279.53s-2.39-6.65-2.43-10.45c0-4.8,4-3.5,4.55-6.6,1,3.54-2.74,4.72-1.19,9.91A25.76,25.76,0,0,0,426.26,279.53Z"/><path class="cls-10" d="M421.5,288.85c-8-3.36-13.88-8-13.7-10.62a1.56,1.56,0,0,0-.28.44c-1.07,2.56,5,7.54,13.58,11.12s16.38,4.41,17.45,1.86a1.67,1.67,0,0,0,.12-.5C436.91,293.15,429.54,292.21,421.5,288.85Z"/><path class="cls-11" d="M433.14,286.66c.27-.27.44-.51,1-.37,1.18.31,1.46-1.68,2-2.33s0-5.32-.09-5.45-.65-.59-1.37.21-6.3,2.65-6.39,2.68-.62-.9-.79-.95-.19-1.14,0-3.18-3-5.87-3.18-6-1,1.61-1.21,2.11a24,24,0,0,1-2.8,3.2c-.28.19-1.77-3.19-1.87-3.28a12.6,12.6,0,0,0-2.4.87c-1,.39-2.46,2.85-2.12,4.7-2.19-.2-3.7.1-4.06,1-.81,1.94,4.39,6,11.61,9s13.73,3.9,14.54,2C436.45,289.84,435.3,288.31,433.14,286.66Z"/><path class="cls-6" d="M418.7,283.58c-.05,0-7.59-6.66-.45-9.8a5.17,5.17,0,0,0,1.56,2.94,6.18,6.18,0,0,1,1.3,6.2c2.9-2.59.88-5-.41-6.65-.34-.43-1.67-1.75-1.3-3l.26-.85-1,.27c-3.26.9-5.07,2.31-5.52,4.15C412.19,280.75,417.45,283,418.7,283.58Z"/><path class="cls-6" d="M423.58,282.22c6.4-3.79,2.59-8,1.09-10l-.1-.13a10,10,0,0,1-3.09,4.31c-.24.2-.65.63-.65.63l-.78-.67.56-.57c1.38-1.41,3.54-3.62,3.89-5.76l.21-1.27.8,1.18c.22.32.5.7.8,1.1,1.51,2,3.56,6,2.68,8.87C427.91,283.54,423.58,282.22,423.58,282.22Z"/><path class="cls-12" d="M427.27,284.11c-.64.93,2.14-3.07,1.38-3.13-.12,0,6.56-3.13,6.74-3s2.34,4.9.46,6.74S430,286.19,430,286.4C430,286.43,425.76,286.31,427.27,284.11Z"/><path class="cls-6" d="M435.73,280c-.11-.47-.3-.66-.41-1.14-3.21,3.52-6.27-1-7.17,5.76-1.54-1-.58-4.82,2.15-5.08a7.16,7.16,0,0,0,5.81-3.69l.15,1.56a16.39,16.39,0,0,0,.53,2.45c2.77,11.23-8.19,7.17-12.28,4.91C424.5,284.81,437.79,289.22,435.73,280Z"/><path class="cls-6" d="M421.71,281.78c.57.21,1.14.43,1.71.66,1.16.46,2.32,1,3.42,1.5l-.56.69c-.9-.43-1.87-.84-2.8-1.19s-1.54-.56-2.22-.76Z"/><path class="cls-6" d="M417,282.22a.5.5,0,0,0-.26.76c.55,1.25,3.62,3.11,6.9,4.6a50.73,50.73,0,0,0,7.75,2.87,25.28,25.28,0,0,0,2.73.6c1.3.24-3.7,1-12.56-2.71-5.2-2.18-10.26-5.79-10.28-7.43-.08-.84,1-1.24,3.12-1,.32,0,.67.08,1,.14Z"/><path class="cls-13" d="M445.45,274.88a1.44,1.44,0,0,0-2-.59l-21.2,11.26a19.59,19.59,0,0,0,1.61,1.37c.28.21,1.58-.13,1.85.07l19.1-10.15A1.44,1.44,0,0,0,445.45,274.88Z"/><path class="cls-14" d="M445,275.11h0Zm0,0a1.49,1.49,0,0,1-.7.77l-20.56,10.92.14.11c.13.1.69,0,.82.06l19.89-10.57A1,1,0,0,0,445,275.11Z"/><path class="cls-6" d="M432,286.95c1.82,1.42,1.76,2.46.21,2.5s-4.87-.85-7.57-2.05-4.73-2.8-4.77-3.4,1.25-.61,3.07,0-1.76-.31-1.47.24,1.79,1.56,3.82,2.42,3.9,1.64,4.72,1.48.63-.84-.7-1.79Z"/><path class="cls-3" d="M397.75,320.1a.4.4,0,0,1-.18.2,6.89,6.89,0,0,0-2.6-.58c-.85,0-1.48.31-1.48,1.08,0,1.21,2,1.12,3.61,2.17a3.12,3.12,0,0,1,1.5,2.73,3.53,3.53,0,0,1-3.83,3.61c-1.66,0-4.21-.85-4.21-1.46a2.77,2.77,0,0,1,.11-.29l.49-1.28c0-.11.09-.2.18-.2a9.1,9.1,0,0,0,3.2,1c.74,0,1.37-.31,1.37-1.12,0-1.3-2.2-1.3-3.67-2.29a2.9,2.9,0,0,1-1.32-2.53,3.67,3.67,0,0,1,4-3.65c1.37,0,3.5.58,3.5,1.1a1,1,0,0,1-.11.29Z"/><path class="cls-3" d="M454.18,327.74a.46.46,0,0,1,.07.25c0,.58-2.24,1.32-4,1.32-3,0-5-1.68-5-5.8,0-3.56,1.9-6,4.91-6,3.81,0,4.48,3.41,4.48,6.12,0,.43-.09.56-.52.56h-6c0,1.25.36,2.8,2.46,2.8a8,8,0,0,0,2.85-.74.3.3,0,0,1,.25.18Zm-2.6-5.67c0-.92-.07-2.51-1.62-2.51-1.75,0-1.84,1.88-1.9,2.51Z"/><path class="cls-3" d="M407.15,328.28c0,.11,0,.11,0,.18,0,.43-1.64.85-3.16.85-2.89,0-2.89-2.26-2.89-4.33v-5h-1.59c-.27,0-.31-.07-.31-.31v-1.46c0-.25,0-.31.31-.31h1.59V315c0-.29,0-.36.36-.4l2-.27.29,0c.2,0,.22.11.22.38v3.14h1.59c.2,0,.38,0,.38.25a.63.63,0,0,1,0,.18l-.29,1.32c-.07.31-.13.34-.4.34H404v5.42c0,.72,0,1.37.76,1.37a7.72,7.72,0,0,0,1.77-.43.17.17,0,0,1,.18.13Z"/><path class="cls-3" d="M417.64,328.62c0,.25,0,.31-.31.31h-2.22c-.27,0-.31-.07-.31-.31v-6.77a9.88,9.88,0,0,0-.58-3.38c0-.09.09-.16.2-.2l1.7-.7a1.53,1.53,0,0,1,.29-.09c.27,0,.72,1,.83,1.77a3.66,3.66,0,0,1,2.78-1.77c.65,0,1.3.22,1.3.52a.54.54,0,0,1,0,.22l-.69,1.88c0,.07-.09.2-.18.2a4.21,4.21,0,0,0-1.05-.25c-.7,0-1.41.76-1.7,1.08Z"/><path class="cls-3" d="M427.76,328.46c0,.4-.09.47-.47.47h-1.9c-.38,0-.47-.07-.47-.47v-8.52h-1.59c-.38,0-.47-.07-.47-.47v-1.14c0-.4.09-.47.47-.47h1.59v-.92c0-2.46.9-4.24,3.59-4.24,1,0,2.73.36,2.73.81a.66.66,0,0,1,0,.2l-.4,1.57c0,.09-.11.22-.2.22a5.65,5.65,0,0,0-1.57-.38c-1.21,0-1.25.74-1.25,1.82v.92h1.54c.2,0,.38,0,.38.22a.83.83,0,0,1,0,.22l-.31,1.32c-.07.29-.2.31-.43.31h-1.13Z"/><path class="cls-3" d="M441.6,328.62c0,.25,0,.31-.31.31h-2.22c-.27,0-.31-.07-.31-.31v-6.77a9.88,9.88,0,0,0-.58-3.38c0-.09.09-.16.2-.2l1.7-.7a1.51,1.51,0,0,1,.29-.09c.27,0,.72,1,.83,1.77a3.66,3.66,0,0,1,2.78-1.77c.65,0,1.3.22,1.3.52a.55.55,0,0,1,0,.22l-.69,1.88c0,.07-.09.2-.18.2a4.24,4.24,0,0,0-1.05-.25c-.7,0-1.41.76-1.7,1.08Z"/><path class="cls-3" d="M412.25,328.62c0,.25,0,.31-.31.31h-2.22c-.27,0-.31-.07-.31-.31v-8.67h-1.73c-.27,0-.31-.07-.31-.31v-1.46c0-.25,0-.31.31-.31h4.26c.27,0,.31.07.31.31Zm-1.52-11.56a1.55,1.55,0,1,0-1.55-1.55A1.55,1.55,0,0,0,410.73,317.06Z"/><path class="cls-3" d="M435.69,328.62c0,.25,0,.31-.31.31h-2.22c-.27,0-.31-.07-.31-.31v-8.67h-1.73c-.27,0-.31-.07-.31-.31v-1.46c0-.25,0-.31.31-.31h4.26c.27,0,.31.07.31.31Zm-1.52-11.56a1.55,1.55,0,1,0-1.56-1.55A1.55,1.55,0,0,0,434.17,317.06Z"/><path class="cls-3" d="M400,335h1.3c0,.2,0,.32.13.38a.59.59,0,0,0,.25.07l1,0h1a.92.92,0,0,0,.27,0c.1,0,.15-.14.15-.3a.25.25,0,0,0-.1-.24,1,1,0,0,0-.43-.07l-1,0-1.07,0a3.41,3.41,0,0,1-.74-.08.82.82,0,0,1-.4-.22,1.22,1.22,0,0,1-.25-.86,1.31,1.31,0,0,1,.28-1,1.12,1.12,0,0,1,.66-.28,16.87,16.87,0,0,1,1.82-.06,12.65,12.65,0,0,1,1.36,0,1.43,1.43,0,0,1,.83.31,1.09,1.09,0,0,1,.23.78s0,.1,0,.19h-1.3a.8.8,0,0,0,0-.23.19.19,0,0,0-.09-.1.82.82,0,0,0-.31-.06h-.93a6.26,6.26,0,0,0-1,0,.24.24,0,0,0-.19.27.24.24,0,0,0,.19.26,14.12,14.12,0,0,0,1.42.07q1.07,0,1.43.07a1.66,1.66,0,0,1,.57.15.74.74,0,0,1,.34.36,1.69,1.69,0,0,1,.1.66,1.66,1.66,0,0,1-.17.84.77.77,0,0,1-.35.3,2,2,0,0,1-.63.13q-.44,0-1.62,0-1,0-1.47,0a2.11,2.11,0,0,1-.71-.17.72.72,0,0,1-.34-.34,1.63,1.63,0,0,1-.1-.64Z"/><path class="cls-3" d="M439.78,335h1.3c0,.2,0,.32.13.38a.58.58,0,0,0,.25.07l1,0h1a.91.91,0,0,0,.27,0c.1,0,.15-.14.15-.3a.25.25,0,0,0-.1-.24,1,1,0,0,0-.43-.07l-1.05,0-1.07,0a3.4,3.4,0,0,1-.74-.08.81.81,0,0,1-.4-.22,1.22,1.22,0,0,1-.25-.86,1.31,1.31,0,0,1,.28-1,1.12,1.12,0,0,1,.66-.28,16.85,16.85,0,0,1,1.82-.06,12.63,12.63,0,0,1,1.36,0,1.43,1.43,0,0,1,.83.31,1.09,1.09,0,0,1,.22.78s0,.1,0,.19h-1.3a.89.89,0,0,0,0-.23.2.2,0,0,0-.1-.1.82.82,0,0,0-.3-.06h-.93a6.27,6.27,0,0,0-1,0,.24.24,0,0,0-.19.27.24.24,0,0,0,.19.26,14.14,14.14,0,0,0,1.42.07c.71,0,1.19,0,1.43.07a1.66,1.66,0,0,1,.57.15.74.74,0,0,1,.34.36,1.72,1.72,0,0,1,.1.66,1.66,1.66,0,0,1-.17.84.77.77,0,0,1-.35.3,2,2,0,0,1-.63.13c-.29,0-.83,0-1.62,0s-1.15,0-1.47,0a2.12,2.12,0,0,1-.71-.17.72.72,0,0,1-.34-.34,1.61,1.61,0,0,1-.1-.64Z"/><path class="cls-3" d="M406.58,332.33h5.32v1h-2v3h-1.41v-3h-2Z"/><path class="cls-3" d="M413.51,332.33h1.34v1.84a5.14,5.14,0,0,0,0,.8.41.41,0,0,0,.33.31,5.59,5.59,0,0,0,1.14.07,8.73,8.73,0,0,0,1,0,.69.69,0,0,0,.38-.15.43.43,0,0,0,.1-.18,2,2,0,0,0,0-.37c0-.18,0-.33,0-.44v-1.84h1.34v1.84q0,1-.07,1.25a1,1,0,0,1-.53.74,2,2,0,0,1-.72.18q-.46,0-1.52,0-.8,0-1.23,0a5.21,5.21,0,0,1-.75-.09,1,1,0,0,1-.82-.77,3.38,3.38,0,0,1-.06-.43q0-.19,0-.9Z"/><path class="cls-3" d="M421.14,336.33v-4h4.28a4,4,0,0,1,.54.06,1,1,0,0,1,.86.68,2.07,2.07,0,0,1,.1.45c0,.16,0,.4,0,.73a7.63,7.63,0,0,1,0,.81,2.11,2.11,0,0,1-.11.5,1,1,0,0,1-.81.65,4.21,4.21,0,0,1-.61.08l-1.07,0Zm1.32-1h1.87a6.45,6.45,0,0,0,.76,0,.72.72,0,0,0,.34-.11.47.47,0,0,0,.16-.27,2.59,2.59,0,0,0,0-.56,3,3,0,0,0,0-.56.56.56,0,0,0-.13-.29.55.55,0,0,0-.32-.14,6.74,6.74,0,0,0-.82,0h-1.85Z"/><path class="cls-3" d="M428.8,332.33h1.41v4H428.8Z"/><path class="cls-3" d="M435.08,332.27a19.47,19.47,0,0,1,2,.06,1,1,0,0,1,.94.67,7.46,7.46,0,0,1,0,2.66,1,1,0,0,1-.94.67,19.3,19.3,0,0,1-1.95.06,19.69,19.69,0,0,1-2-.06,1,1,0,0,1-.94-.67,5.24,5.24,0,0,1-.12-1.35,4.94,4.94,0,0,1,.12-1.3,1,1,0,0,1,.94-.67A19.44,19.44,0,0,1,435.08,332.27Zm0,1a8.91,8.91,0,0,0-1.28,0,.42.42,0,0,0-.33.26,2.72,2.72,0,0,0-.08.81,2.29,2.29,0,0,0,0,.53.49.49,0,0,0,.49.35q.3,0,1.16,0c.54,0,.9,0,1.08,0a.85.85,0,0,0,.4-.12.42.42,0,0,0,.16-.24,2.34,2.34,0,0,0,0-.52,4.4,4.4,0,0,0,0-.63.63.63,0,0,0-.12-.3.51.51,0,0,0-.35-.16C436.09,333.32,435.7,333.31,435.08,333.31Z"/></g></g></svg>